<?xml version="1.0" ?><svg id="Layer_1" style="enable-background:new 0 0 500 500;" version="1.1" viewBox="0 0 500 500" xml:space="preserve" xmlns="http://www.w3.org/2000/svg" xmlns:xlink="http://www.w3.org/1999/xlink"><style type="text/css">
	.st0{fill:#FFDF00;}
</style><g><path class="st0" d="M390.572,449.168c-232.786-10.21-334.731-32.756-335.735-32.982c-6.36-1.441-12.68,2.546-14.122,8.904   c-1.442,6.359,2.544,12.684,8.904,14.126c4.159,0.943,104.568,23.222,339.918,33.544c0.177,0.008,0.352,0.011,0.526,0.011   c6.282,0,11.51-4.952,11.787-11.29C402.136,454.966,397.086,449.454,390.572,449.168z"/><path class="st0" d="M259.188,59.432c-1.911-0.018-7.02,0.016-7.02,0.016c-70.813,0.997-126.167,45.928-125.837,46.016   C81.041,142.282,52.23,200.08,52.23,263.533c0,30.972,3.842,68.181,12.576,104.357l-0.008-0.001   c0.123,0.51,0.258,1.018,0.383,1.527c0.297,1.208,0.583,2.419,0.891,3.624c0.036,0.139,0.084,0.273,0.122,0.412   c1.193,4.658,2.469,9.29,3.831,13.885c-10.003-1.793-14.97-2.891-15.188-2.94c-6.36-1.443-12.68,2.547-14.122,8.905   c-1.442,6.359,2.544,12.684,8.904,14.126c4.159,0.944,104.568,23.222,339.918,33.544c0.177,0.008,0.352,0.012,0.526,0.012   c6.282,0,11.51-4.952,11.787-11.291c0.28-6.387-4.572-11.797-10.9-12.277c1.326-1.159,6.469-5.836,6.689-6.041   c23.661-22.033,40.269-45.01,50.28-72.667c8.389-22.261,12.546-47.004,12.539-75.244   C460.431,151.889,370.755,60.469,259.188,59.432z M345.357,255.866c17.222,0,31.184,13.961,31.184,31.184   s-13.961,31.184-31.184,31.184c-17.222,0-31.184-13.962-31.184-31.184S328.135,255.866,345.357,255.866z M288.813,315.387   l-70.053,16.091c-6.518,1.497-12.423,4.947-16.928,9.89l-25.933,28.452c-7.383,8.1-18.319,11.986-29.158,10.36l-62.31-9.347   c-0.299-0.739-0.558-1.5-0.758-2.286c-8.562-33.549-13.278-70.844-13.278-105.015c0-25.111,4.914-49.461,14.605-72.374   c9.365-22.141,22.775-42.028,39.858-59.112c6.659-6.659,13.749-12.751,21.227-18.272c17.332,6.643,34.532,15.331,45.855,21.418   c8.388,4.51,14.664,12.134,17.505,21.223l15.177,48.538c2.314,7.4,6.925,13.87,13.165,18.472l51.025,37.629   C281.188,287.689,288.813,315.387,288.813,315.387z M384.273,398.891l-70.372-4.235c-9.852-0.613-11.921-14.24-2.696-17.753   l37.502-14.394c16.313-6.212,33.624-9.509,51.08-9.509h21.427C412.182,370,399.996,384.374,384.273,398.891z"/><path class="st0" d="M481.155,49.381l-9.353-2.734c-1.691-0.494-3.014-1.817-3.508-3.508l-2.734-9.353   c-1.448-4.954-8.466-4.954-9.914,0l-2.734,9.353c-0.494,1.691-1.817,3.014-3.508,3.508l-9.353,2.734   c-4.954,1.448-4.954,8.466,0,9.914l9.353,2.734c1.691,0.494,3.014,1.817,3.508,3.508l2.734,9.353c1.448,4.954,8.466,4.954,9.914,0   l2.734-9.353c0.494-1.691,1.817-3.014,3.508-3.508l9.353-2.734C486.109,57.847,486.109,50.829,481.155,49.381z"/><path class="st0" d="M28.576,86.856l12.3,3.595c2.224,0.65,3.963,2.389,4.613,4.613l3.595,12.3c1.904,6.515,11.133,6.515,13.037,0   l3.595-12.3c0.65-2.224,2.389-3.963,4.613-4.613l12.3-3.595c6.515-1.904,6.515-11.133,0-13.037l-12.3-3.595   c-2.224-0.65-3.963-2.389-4.613-4.613l-3.595-12.3c-1.904-6.515-11.133-6.515-13.037,0l-3.595,12.3   c-0.65,2.224-2.389,3.963-4.613,4.613l-12.3,3.595C22.062,75.723,22.062,84.952,28.576,86.856z"/><circle class="st0" cx="387.153" cy="46.497" r="11.072"/><circle class="st0" cx="126.153" cy="43.497" r="11.072"/><circle class="st0" cx="25.153" cy="153.497" r="11.072"/><path class="st0" d="M214.676,197.124c-3.112-2.735-7.852-2.426-10.584,0.688l-27.561,31.39l-81.277,13.263   c-3.164,0.517-5.65,2.987-6.187,6.148c-0.049,0.291-1.208,7.21-1.374,15.491c-0.245,12.286,1.72,20.992,6.007,26.613   c2.98,3.907,7.059,6.223,11.794,6.696c5.196,0.52,13.856,2.857,23.025,5.332c9.948,2.686,21.24,5.733,32.143,7.604   c-8.59,3.368-17.693,6.792-24.123,9.206c-0.273-0.077-0.551-0.143-0.837-0.189c-14.566-2.374-26.416-0.286-35.223,6.204   c-10.703,7.887-12.557,19.132-12.733,20.389c-0.574,4.102,2.284,7.894,6.387,8.469c0.354,0.049,0.704,0.073,1.051,0.073   c3.68,0,6.893-2.711,7.418-6.46c0.008-0.061,1.099-6.212,6.776-10.396c0.282-0.208,0.576-0.404,0.873-0.596   c-0.515,8.587,7.005,19.166,10.478,23.557c1.48,1.872,3.674,2.848,5.888,2.848c1.629,0,3.271-0.528,4.647-1.617   c3.249-2.569,3.8-7.286,1.23-10.535c-2.993-3.785-5.862-8.667-6.895-11.535c3.357-1.342,9.198-3.535,15.297-5.824   c10.586-3.975,23.762-8.921,34.223-13.213c15.501-6.36,24.039-9.864,22.112-17.859c-1.772-7.352-10.278-6.379-13.479-6.012   c-13.683,1.568-34.555-4.068-51.323-8.595c-10.205-2.755-19.02-5.134-25.442-5.776c-0.428-0.043-0.799-0.134-1.357-0.864   c-1.757-2.3-2.602-6.904-2.857-12.111c0.717,0.043,1.466,0.079,2.291,0.099c0.41,0.009,0.816,0.014,1.219,0.014   c6.059,0,11.134-1.084,15.097-3.228c5.634-3.046,8.801-8.208,9.039-14.472l51.184-8.352c1.716-0.28,3.281-1.147,4.428-2.454   l29.335-33.41C218.097,204.596,217.789,199.856,214.676,197.124z"/></g></svg>